<?xml version="1.0" encoding="UTF-8" standalone="no"?>
<!DOCTYPE svg PUBLIC "-//W3C//DTD SVG 1.1//EN" "http://www.w3.org/Graphics/SVG/1.1/DTD/svg11.dtd">
<svg xmlns="http://www.w3.org/2000/svg" version="1.1" viewBox="0 0 246 270">
<g stroke-width="2.00" fill="none" stroke-linecap="butt">
<path stroke="#7d5d4c" vector-effect="non-scaling-stroke" d="
  M 102.75 11.79
  C 49.53 24.64 21.17 82.50 43.53 132.27
  C 55.91 159.85 82.75 180.09 113.08 182.94"
/>
<path stroke="#7d675c" vector-effect="non-scaling-stroke" d="
  M 113.08 182.94
  Q 131.73 185.38 147.94 180.21
  C 222.24 156.54 232.98 58.03 164.49 19.73
  C 162.04 18.36 160.98 17.11 161.43 14.28
  A 0.65 0.60 -75.0 0 0 161.07 13.59
  L 155.02 11.15
  A 0.62 0.57 -63.3 0 0 154.30 11.42
  Q 152.62 14.23 149.83 13.41
  Q 125.76 6.41 102.75 11.79"
/>
<path stroke="#fac4a8" vector-effect="non-scaling-stroke" d="
  M 113.08 182.94
  Q 104.76 174.43 96.25 166.20
  C 85.82 156.11 76.91 138.98 74.12 124.78
  Q 73.41 121.14 72.50 117.54"
/>
<path stroke="#fdb7b2" vector-effect="non-scaling-stroke" d="
  M 72.50 117.54
  L 76.15 118.68
  A 2.23 2.20 -64.6 0 0 78.65 117.77
  Q 84.45 109.00 93.21 102.70
  A 1.24 1.23 53.9 0 0 93.48 100.96
  Q 90.41 96.83 85.31 96.31"
/>
<path stroke="#7d675c" vector-effect="non-scaling-stroke" d="
  M 85.31 96.31
  Q 86.18 87.89 91.88 92.74
  A 1.23 1.14 -73.5 0 1 92.28 93.55
  Q 92.66 99.13 97.58 97.68
  Q 100.72 96.76 100.27 93.52
  C 99.60 88.58 97.05 85.02 92.00 83.78
  Q 79.74 80.75 77.80 95.29"
/>
<path stroke="#fdb7b2" vector-effect="non-scaling-stroke" d="
  M 77.80 95.29
  L 69.81 98.27"
/>
<path stroke="#fac4a8" vector-effect="non-scaling-stroke" d="
  M 69.81 98.27
  Q 68.78 87.20 71.38 76.40"
/>
<path stroke="#7d675c" vector-effect="non-scaling-stroke" d="
  M 71.38 76.40
  C 77.32 78.99 92.79 79.48 98.44 75.99
  C 107.01 70.70 106.91 57.80 97.94 52.81
  C 92.95 50.04 84.25 50.68 77.92 50.66"
/>
<path stroke="#fac4a8" vector-effect="non-scaling-stroke" d="
  M 77.92 50.66
  Q 83.84 36.13 93.30 23.70
  C 94.85 21.65 103.31 13.85 102.75 11.79"
/>
<path stroke="#805056" vector-effect="non-scaling-stroke" d="
  M 85.31 96.31
  Q 81.07 99.95 77.80 95.29"
/>
<path stroke="#7d5d4c" vector-effect="non-scaling-stroke" d="
  M 77.92 50.66
  C 64.49 52.43 59.05 68.78 71.38 76.40"
/>
<path stroke="#fcaca2" vector-effect="non-scaling-stroke" d="
  M 69.81 98.27
  Q 59.76 109.57 72.50 117.54"
/>
<path stroke="#76767f" vector-effect="non-scaling-stroke" d="
  M 55.55 28.55
  C 32.00 23.43 8.14 46.12 17.50 70.33
  A 0.48 0.48 -22.5 0 0 18.14 70.59
  Q 24.64 67.76 31.87 67.88
  A 0.69 0.67 8.7 0 0 32.52 67.42
  Q 39.58 45.67 55.79 29.37
  Q 56.42 28.74 55.55 28.55"
/>
<path stroke="#76767f" vector-effect="non-scaling-stroke" d="
  M 228.90 70.27
  C 235.81 45.56 215.81 22.97 190.44 28.62
  Q 189.78 28.77 190.26 29.24
  Q 206.46 45.42 213.63 67.27
  A 0.71 0.70 81.0 0 0 214.28 67.75
  Q 221.48 67.88 228.29 70.56
  A 0.46 0.45 19.2 0 0 228.90 70.27"
/>
<path stroke="#7d5d4c" vector-effect="non-scaling-stroke" d="
  M 29.69 75.80
  C 2.99 77.73 2.83 115.30 29.76 117.38
  A 0.37 0.37 86.0 0 0 30.15 116.93
  Q 25.87 96.66 30.09 76.25
  A 0.38 0.37 4.0 0 0 29.69 75.80"
/>
<path stroke="#7d5d4c" vector-effect="non-scaling-stroke" d="
  M 216.48 117.40
  C 243.93 114.18 242.50 76.87 216.48 75.84
  A 0.40 0.39 85.2 0 0 216.09 76.32
  Q 220.31 96.61 216.08 116.98
  A 0.36 0.35 2.2 0 0 216.48 117.40"
/>
<path stroke="#765542" vector-effect="non-scaling-stroke" d="
  M 69.11 189.52
  L 69.01 217.19
  A 0.53 0.52 89.5 0 0 69.54 217.72
  L 84.40 217.69
  A 0.53 0.52 1.1 0 0 84.93 217.19
  Q 85.42 206.01 84.86 195.56"
/>
<path stroke="#724438" vector-effect="non-scaling-stroke" d="
  M 84.86 195.56
  L 85.24 185.22
  A 2.34 2.18 14.6 0 0 83.90 183.11
  L 76.48 179.59
  A 0.95 0.77 36.7 0 0 75.59 179.63
  L 69.33 184.33
  A 1.05 0.91 73.1 0 0 68.96 185.17
  L 69.11 189.52"
/>
<path stroke="#e8997a" vector-effect="non-scaling-stroke" d="
  M 84.86 195.56
  L 69.11 189.52"
/>
<path stroke="#765542" vector-effect="non-scaling-stroke" d="
  M 161.04 196.00
  L 161.01 217.09
  A 0.58 0.56 89.5 0 0 161.58 217.67
  L 176.78 217.56
  A 0.52 0.49 90.0 0 0 177.27 217.04
  L 177.03 188.92"
/>
<path stroke="#724438" vector-effect="non-scaling-stroke" d="
  M 177.03 188.92
  L 177.02 184.96
  A 1.24 1.09 -70.5 0 0 176.68 184.11
  Q 173.79 181.40 170.23 179.64
  A 1.03 0.98 -45.0 0 0 169.34 179.66
  L 161.53 183.62
  A 0.83 0.81 -13.7 0 0 161.07 184.35
  L 161.04 196.00"
/>
<path stroke="#e8997a" vector-effect="non-scaling-stroke" d="
  M 177.03 188.92
  Q 169.27 193.31 161.04 196.00"
/>
<path stroke="#76767f" vector-effect="non-scaling-stroke" d="
  M 93.04 203.00
  L 93.03 219.70
  A 1.37 1.19 26.7 0 0 93.39 220.57
  Q 102.39 230.36 93.41 240.26
  A 1.39 1.31 -24.8 0 0 93.06 241.13
  L 92.93 259.56
  A 1.28 1.27 89.4 0 0 94.24 260.85
  C 113.75 260.28 133.24 261.28 152.71 260.50
  A 0.53 0.52 88.9 0 0 153.21 259.97
  L 153.23 241.31
  A 1.34 1.24 25.3 0 0 152.88 240.44
  Q 143.51 230.32 152.91 220.35
  A 1.30 1.25 -24.5 0 0 153.25 219.49
  L 153.20 199.89"
/>
<path stroke="#6a697f" vector-effect="non-scaling-stroke" d="
  M 153.20 199.89
  L 153.06 187.41
  A 0.39 0.38 -9.3 0 0 152.56 187.06
  Q 122.96 196.13 93.51 187.00
  A 0.37 0.37 8.7 0 0 93.03 187.35
  L 93.04 203.00"
/>
<path stroke="#e0defe" vector-effect="non-scaling-stroke" d="
  M 153.20 199.89
  Q 141.21 201.31 129.45 203.94"
/>
<path stroke="#6a697f" vector-effect="non-scaling-stroke" d="
  M 129.45 203.94
  Q 123.54 200.52 117.33 203.69"
/>
<path stroke="#e0defe" vector-effect="non-scaling-stroke" d="
  M 117.33 203.69
  Q 106.55 202.15 95.93 200.03
  Q 92.83 199.41 93.04 203.00"
/>
<path stroke="#76767f" vector-effect="non-scaling-stroke" d="
  M 117.33 203.69
  Q 110.32 208.76 112.58 216.42
  C 115.17 225.22 127.81 227.01 132.47 218.93
  Q 137.15 210.80 129.45 203.94"
/>
<path stroke="#76767f" vector-effect="non-scaling-stroke" d="
  M 46.31 210.44
  Q 44.93 209.92 45.37 211.08
  A 1.21 0.94 -47.3 0 1 45.30 211.94
  L 43.07 216.55
  A 0.77 0.60 36.1 0 0 43.30 217.35
  C 45.08 218.92 45.78 220.34 45.04 222.83
  Q 39.67 241.09 39.76 260.21
  A 0.50 0.49 90.0 0 0 40.25 260.71
  L 60.70 260.71
  A 0.51 0.50 -0.0 0 0 61.21 260.21
  L 61.16 241.15
  A 1.35 1.20 26.7 0 0 60.82 240.30
  Q 51.69 230.34 60.88 220.60
  A 1.29 1.22 -24.5 0 0 61.23 219.74
  L 61.24 193.16
  Q 61.24 191.96 60.50 192.91
  Q 54.57 200.56 50.23 208.97
  Q 48.96 211.44 46.31 210.44"
/>
<path stroke="#76767f" vector-effect="non-scaling-stroke" d="
  M 201.93 260.59
  C 203.14 260.56 204.57 260.86 205.94 260.76
  A 0.55 0.53 87.8 0 0 206.43 260.21
  C 206.56 236.61 200.57 211.21 185.50 192.86
  Q 185.17 192.46 185.17 192.98
  L 185.11 219.79
  A 1.33 1.19 26.6 0 0 185.46 220.67
  Q 194.34 230.44 185.39 240.24
  A 1.39 1.31 -24.8 0 0 185.04 241.11
  L 184.95 260.20
  A 0.54 0.54 0.0 0 0 185.49 260.74
  Q 193.72 260.82 201.93 260.59"
/>
<path stroke="#7e613b" vector-effect="non-scaling-stroke" d="
  M 89.91 230.19
  A 4.65 4.65 0.0 0 0 85.26 225.54
  L 68.92 225.54
  A 4.65 4.65 0.0 0 0 64.27 230.19
  L 64.27 230.59
  A 4.65 4.65 0.0 0 0 68.92 235.24
  L 85.26 235.24
  A 4.65 4.65 0.0 0 0 89.91 230.59
  L 89.91 230.19"
/>
<path stroke="#7e613b" vector-effect="non-scaling-stroke" d="
  M 181.9296 230.1776
  A 4.65 4.65 0.0 0 0 177.2715 225.5357
  L 160.9315 225.5643
  A 4.65 4.65 0.0 0 0 156.2897 230.2224
  L 156.2904 230.6224
  A 4.65 4.65 0.0 0 0 160.9485 235.2643
  L 177.2885 235.2357
  A 4.65 4.65 0.0 0 0 181.9303 230.5776
  L 181.9296 230.1776"
/>
<path stroke="#765542" vector-effect="non-scaling-stroke" d="
  M 68.99 255.36
  L 69.13 260.14
  A 0.54 0.52 -2.2 0 0 69.69 260.64
  L 84.84 260.35
  A 0.50 0.46 87.7 0 0 85.29 259.82
  L 85.04 254.50"
/>
<path stroke="#724438" vector-effect="non-scaling-stroke" d="
  M 85.04 254.50
  L 85.13 243.86
  A 0.53 0.51 0.5 0 0 84.60 243.34
  L 69.63 243.35
  A 0.52 0.52 -89.4 0 0 69.11 243.86
  L 68.99 255.36"
/>
<path stroke="#e8997a" vector-effect="non-scaling-stroke" d="
  M 85.04 254.50
  L 68.99 255.36"
/>
<path stroke="#765542" vector-effect="non-scaling-stroke" d="
  M 161.04 255.25
  L 161.03 259.98
  A 0.53 0.50 0.0 0 0 161.56 260.48
  L 176.70 260.48
  A 0.48 0.47 88.3 0 0 177.17 259.97
  L 177.04 258.00"
/>
<path stroke="#724438" vector-effect="non-scaling-stroke" d="
  M 177.04 258.00
  L 177.14 243.86
  A 0.51 0.50 0.6 0 0 176.63 243.35
  L 161.63 243.35
  A 0.52 0.52 -89.4 0 0 161.11 243.86
  L 161.04 255.25"
/>
<path stroke="#e8997a" vector-effect="non-scaling-stroke" d="
  M 177.04 258.00
  L 176.76 255.31
  A 0.57 0.54 -3.3 0 0 176.18 254.82
  L 161.04 255.25"
/>
<path stroke="#7d675c" vector-effect="non-scaling-stroke" d="
  M 181.50 63.69
  A 12.52 12.52 0.0 0 0 168.98 51.17
  L 154.16 51.17
  A 12.52 12.52 0.0 0 0 141.64 63.69
  L 141.64 65.35
  A 12.52 12.52 0.0 0 0 154.16 77.87
  L 168.98 77.87
  A 12.52 12.52 0.0 0 0 181.50 65.35
  L 181.50 63.69"
/>
<path stroke="#fdb7b2" vector-effect="non-scaling-stroke" d="
  M 161.04 96.25
  Q 156.19 96.87 153.10 100.68
  A 1.45 1.45 -50.2 0 0 153.28 102.68
  Q 160.62 109.03 166.18 117.63
  A 2.66 2.65 71.8 0 0 168.56 118.84
  C 179.36 118.26 186.13 105.42 175.53 98.23
  Q 171.92 95.78 168.06 95.59"
/>
<path stroke="#7d675c" vector-effect="non-scaling-stroke" d="
  M 168.06 95.59
  Q 168.28 86.37 160.97 83.82
  C 146.19 78.67 140.96 101.72 152.45 97.12
  A 1.10 1.03 -3.0 0 0 153.08 96.46
  L 154.36 92.48
  A 1.72 1.17 89.5 0 1 154.88 91.70
  Q 157.23 90.03 159.47 91.86
  A 1.73 0.86 86.5 0 1 159.95 92.69
  L 161.04 96.25"
/>
<path stroke="#805056" vector-effect="non-scaling-stroke" d="
  M 168.06 95.59
  Q 164.97 99.93 161.04 96.25"
/>
<path stroke="#76767f" vector-effect="non-scaling-stroke" d="
  M 96.8995 64.2486
  A 5.43 5.43 0.0 0 0 91.4601 58.8281
  L 77.8201 58.8519
  A 5.43 5.43 0.0 0 0 72.3996 64.2914
  L 72.4005 64.7914
  A 5.43 5.43 0.0 0 0 77.8399 70.2119
  L 91.4799 70.1881
  A 5.43 5.43 0.0 0 0 96.9004 64.7486
  L 96.8995 64.2486"
/>
<path stroke="#76767f" vector-effect="non-scaling-stroke" d="
  M 173.68 64.26
  A 5.45 5.45 0.0 0 0 168.23 58.81
  L 154.75 58.81
  A 5.45 5.45 0.0 0 0 149.30 64.26
  L 149.30 64.78
  A 5.45 5.45 0.0 0 0 154.75 70.23
  L 168.23 70.23
  A 5.45 5.45 0.0 0 0 173.68 64.78
  L 173.68 64.26"
/>
<path stroke="#76767f" vector-effect="non-scaling-stroke" d="
  M 134.03 242.89
  A 10.95 10.95 0.0 0 0 123.08 231.94
  A 10.95 10.95 0.0 0 0 112.13 242.89
  A 10.95 10.95 0.0 0 0 123.08 253.84
  A 10.95 10.95 0.0 0 0 134.03 242.89"
/>
<path stroke="#6a697f" vector-effect="non-scaling-stroke" d="
  M 126.17 213.19
  A 3.10 3.10 0.0 0 0 123.07 210.09
  A 3.10 3.10 0.0 0 0 119.97 213.19
  A 3.10 3.10 0.0 0 0 123.07 216.29
  A 3.10 3.10 0.0 0 0 126.17 213.19"
/>
<path stroke="#6a697f" vector-effect="non-scaling-stroke" d="
  M 126.15 242.82
  A 3.07 3.07 0.0 0 0 123.08 239.75
  A 3.07 3.07 0.0 0 0 120.01 242.82
  A 3.07 3.07 0.0 0 0 123.08 245.89
  A 3.07 3.07 0.0 0 0 126.15 242.82"
/>
</g>
<path fill="#000000" d="
  M 211.07 131.54
  C 204.89 148.42 193.63 161.86 179.64 172.90
  Q 177.56 174.54 179.52 176.31
  C 185.08 181.32 190.85 186.57 195.01 192.63
  C 209.63 213.94 214.53 239.02 214.24 264.69
  Q 214.21 266.52 212.59 267.38
  Q 209.94 268.79 206.50 268.80
  C 152.69 268.96 99.16 268.36 37.51 268.28
  C 32.39 268.27 32.60 266.15 32.55 262.04
  Q 32.35 244.75 36.27 225.74
  Q 37.42 220.17 41.15 216.90
  Q 41.53 216.57 41.70 216.11
  L 43.66 210.99
  Q 43.84 210.52 43.78 210.02
  C 42.41 199.32 60.35 181.40 68.21 175.43
  A 0.82 0.82 90.0 0 0 68.21 174.13
  Q 59.15 167.15 51.56 158.57
  C 47.89 154.43 44.49 148.95 41.05 143.97
  C 37.36 138.65 35.11 132.13 32.92 126.22
  A 1.72 1.69 -8.0 0 0 31.44 125.12
  C 18.74 124.30 8.66 118.77 3.95 106.69
  Q -1.81 91.95 9.44 77.10
  Q 10.88 75.19 10.09 72.93
  C -0.70 42.16 31.22 10.28 61.57 22.54
  A 2.66 2.65 37.2 0 0 64.18 22.19
  C 89.34 2.99 121.45 -3.36 152.21 6.16
  A 1.57 1.50 79.6 0 1 152.98 6.72
  Q 156.98 12.17 163.53 12.64
  C 171.52 13.21 176.46 18.63 183.06 22.40
  A 1.16 1.10 -38.0 0 0 183.98 22.49
  C 201.93 16.65 219.70 21.95 230.62 37.00
  Q 242.16 52.91 235.95 74.23
  A 2.71 2.70 -58.4 0 0 236.57 76.85
  C 245.50 86.42 246.72 100.16 239.94 111.31
  Q 232.12 124.19 215.09 125.26
  A 1.29 1.08 15.6 0 0 214.25 125.64
  Q 212.53 127.55 211.07 131.54
  Z
  M 102.75 11.79
  C 49.53 24.64 21.17 82.50 43.53 132.27
  C 55.91 159.85 82.75 180.09 113.08 182.94
  Q 131.73 185.38 147.94 180.21
  C 222.24 156.54 232.98 58.03 164.49 19.73
  C 162.04 18.36 160.98 17.11 161.43 14.28
  A 0.65 0.60 -75.0 0 0 161.07 13.59
  L 155.02 11.15
  A 0.62 0.57 -63.3 0 0 154.30 11.42
  Q 152.62 14.23 149.83 13.41
  Q 125.76 6.41 102.75 11.79
  Z
  M 55.55 28.55
  C 32.00 23.43 8.14 46.12 17.50 70.33
  A 0.48 0.48 -22.5 0 0 18.14 70.59
  Q 24.64 67.76 31.87 67.88
  A 0.69 0.67 8.7 0 0 32.52 67.42
  Q 39.58 45.67 55.79 29.37
  Q 56.42 28.74 55.55 28.55
  Z
  M 228.90 70.27
  C 235.81 45.56 215.81 22.97 190.44 28.62
  Q 189.78 28.77 190.26 29.24
  Q 206.46 45.42 213.63 67.27
  A 0.71 0.70 81.0 0 0 214.28 67.75
  Q 221.48 67.88 228.29 70.56
  A 0.46 0.45 19.2 0 0 228.90 70.27
  Z
  M 29.69 75.80
  C 2.99 77.73 2.83 115.30 29.76 117.38
  A 0.37 0.37 86.0 0 0 30.15 116.93
  Q 25.87 96.66 30.09 76.25
  A 0.38 0.37 4.0 0 0 29.69 75.80
  Z
  M 216.48 117.40
  C 243.93 114.18 242.50 76.87 216.48 75.84
  A 0.40 0.39 85.2 0 0 216.09 76.32
  Q 220.31 96.61 216.08 116.98
  A 0.36 0.35 2.2 0 0 216.48 117.40
  Z
  M 69.11 189.52
  L 69.01 217.19
  A 0.53 0.52 89.5 0 0 69.54 217.72
  L 84.40 217.69
  A 0.53 0.52 1.1 0 0 84.93 217.19
  Q 85.42 206.01 84.86 195.56
  L 85.24 185.22
  A 2.34 2.18 14.6 0 0 83.90 183.11
  L 76.48 179.59
  A 0.95 0.77 36.7 0 0 75.59 179.63
  L 69.33 184.33
  A 1.05 0.91 73.1 0 0 68.96 185.17
  L 69.11 189.52
  Z
  M 161.04 196.00
  L 161.01 217.09
  A 0.58 0.56 89.5 0 0 161.58 217.67
  L 176.78 217.56
  A 0.52 0.49 90.0 0 0 177.27 217.04
  L 177.03 188.92
  L 177.02 184.96
  A 1.24 1.09 -70.5 0 0 176.68 184.11
  Q 173.79 181.40 170.23 179.64
  A 1.03 0.98 -45.0 0 0 169.34 179.66
  L 161.53 183.62
  A 0.83 0.81 -13.7 0 0 161.07 184.35
  L 161.04 196.00
  Z
  M 93.04 203.00
  L 93.03 219.70
  A 1.37 1.19 26.7 0 0 93.39 220.57
  Q 102.39 230.36 93.41 240.26
  A 1.39 1.31 -24.8 0 0 93.06 241.13
  L 92.93 259.56
  A 1.28 1.27 89.4 0 0 94.24 260.85
  C 113.75 260.28 133.24 261.28 152.71 260.50
  A 0.53 0.52 88.9 0 0 153.21 259.97
  L 153.23 241.31
  A 1.34 1.24 25.3 0 0 152.88 240.44
  Q 143.51 230.32 152.91 220.35
  A 1.30 1.25 -24.5 0 0 153.25 219.49
  L 153.20 199.89
  L 153.06 187.41
  A 0.39 0.38 -9.3 0 0 152.56 187.06
  Q 122.96 196.13 93.51 187.00
  A 0.37 0.37 8.7 0 0 93.03 187.35
  L 93.04 203.00
  Z
  M 46.31 210.44
  Q 44.93 209.92 45.37 211.08
  A 1.21 0.94 -47.3 0 1 45.30 211.94
  L 43.07 216.55
  A 0.77 0.60 36.1 0 0 43.30 217.35
  C 45.08 218.92 45.78 220.34 45.04 222.83
  Q 39.67 241.09 39.76 260.21
  A 0.50 0.49 90.0 0 0 40.25 260.71
  L 60.70 260.71
  A 0.51 0.50 -0.0 0 0 61.21 260.21
  L 61.16 241.15
  A 1.35 1.20 26.7 0 0 60.82 240.30
  Q 51.69 230.34 60.88 220.60
  A 1.29 1.22 -24.5 0 0 61.23 219.74
  L 61.24 193.16
  Q 61.24 191.96 60.50 192.91
  Q 54.57 200.56 50.23 208.97
  Q 48.96 211.44 46.31 210.44
  Z
  M 201.93 260.59
  C 203.14 260.56 204.57 260.86 205.94 260.76
  A 0.55 0.53 87.8 0 0 206.43 260.21
  C 206.56 236.61 200.57 211.21 185.50 192.86
  Q 185.17 192.46 185.17 192.98
  L 185.11 219.79
  A 1.33 1.19 26.6 0 0 185.46 220.67
  Q 194.34 230.44 185.39 240.24
  A 1.39 1.31 -24.8 0 0 185.04 241.11
  L 184.95 260.20
  A 0.54 0.54 0.0 0 0 185.49 260.74
  Q 193.72 260.82 201.93 260.59
  Z
  M 89.91 230.19
  A 4.65 4.65 0.0 0 0 85.26 225.54
  L 68.92 225.54
  A 4.65 4.65 0.0 0 0 64.27 230.19
  L 64.27 230.59
  A 4.65 4.65 0.0 0 0 68.92 235.24
  L 85.26 235.24
  A 4.65 4.65 0.0 0 0 89.91 230.59
  L 89.91 230.19
  Z
  M 181.9296 230.1776
  A 4.65 4.65 0.0 0 0 177.2715 225.5357
  L 160.9315 225.5643
  A 4.65 4.65 0.0 0 0 156.2897 230.2224
  L 156.2904 230.6224
  A 4.65 4.65 0.0 0 0 160.9485 235.2643
  L 177.2885 235.2357
  A 4.65 4.65 0.0 0 0 181.9303 230.5776
  L 181.9296 230.1776
  Z
  M 68.99 255.36
  L 69.13 260.14
  A 0.54 0.52 -2.2 0 0 69.69 260.64
  L 84.84 260.35
  A 0.50 0.46 87.7 0 0 85.29 259.82
  L 85.04 254.50
  L 85.13 243.86
  A 0.53 0.51 0.5 0 0 84.60 243.34
  L 69.63 243.35
  A 0.52 0.52 -89.4 0 0 69.11 243.86
  L 68.99 255.36
  Z
  M 161.04 255.25
  L 161.03 259.98
  A 0.53 0.50 0.0 0 0 161.56 260.48
  L 176.70 260.48
  A 0.48 0.47 88.3 0 0 177.17 259.97
  L 177.04 258.00
  L 177.14 243.86
  A 0.51 0.50 0.6 0 0 176.63 243.35
  L 161.63 243.35
  A 0.52 0.52 -89.4 0 0 161.11 243.86
  L 161.04 255.25
  Z"
/>
<path fill="#faceb8" d="
  M 113.08 182.94
  Q 104.76 174.43 96.25 166.20
  C 85.82 156.11 76.91 138.98 74.12 124.78
  Q 73.41 121.14 72.50 117.54
  L 76.15 118.68
  A 2.23 2.20 -64.6 0 0 78.65 117.77
  Q 84.45 109.00 93.21 102.70
  A 1.24 1.23 53.9 0 0 93.48 100.96
  Q 90.41 96.83 85.31 96.31
  Q 86.18 87.89 91.88 92.74
  A 1.23 1.14 -73.5 0 1 92.28 93.55
  Q 92.66 99.13 97.58 97.68
  Q 100.72 96.76 100.27 93.52
  C 99.60 88.58 97.05 85.02 92.00 83.78
  Q 79.74 80.75 77.80 95.29
  L 69.81 98.27
  Q 68.78 87.20 71.38 76.40
  C 77.32 78.99 92.79 79.48 98.44 75.99
  C 107.01 70.70 106.91 57.80 97.94 52.81
  C 92.95 50.04 84.25 50.68 77.92 50.66
  Q 83.84 36.13 93.30 23.70
  C 94.85 21.65 103.31 13.85 102.75 11.79
  Q 125.76 6.41 149.83 13.41
  Q 152.62 14.23 154.30 11.42
  A 0.62 0.57 -63.3 0 1 155.02 11.15
  L 161.07 13.59
  A 0.65 0.60 -75.0 0 1 161.43 14.28
  C 160.98 17.11 162.04 18.36 164.49 19.73
  C 232.98 58.03 222.24 156.54 147.94 180.21
  Q 131.73 185.38 113.08 182.94
  Z
  M 181.50 63.69
  A 12.52 12.52 0.0 0 0 168.98 51.17
  L 154.16 51.17
  A 12.52 12.52 0.0 0 0 141.64 63.69
  L 141.64 65.35
  A 12.52 12.52 0.0 0 0 154.16 77.87
  L 168.98 77.87
  A 12.52 12.52 0.0 0 0 181.50 65.35
  L 181.50 63.69
  Z
  M 161.04 96.25
  Q 156.19 96.87 153.10 100.68
  A 1.45 1.45 -50.2 0 0 153.28 102.68
  Q 160.62 109.03 166.18 117.63
  A 2.66 2.65 71.8 0 0 168.56 118.84
  C 179.36 118.26 186.13 105.42 175.53 98.23
  Q 171.92 95.78 168.06 95.59
  Q 168.28 86.37 160.97 83.82
  C 146.19 78.67 140.96 101.72 152.45 97.12
  A 1.10 1.03 -3.0 0 0 153.08 96.46
  L 154.36 92.48
  A 1.72 1.17 89.5 0 1 154.88 91.70
  Q 157.23 90.03 159.47 91.86
  A 1.73 0.86 86.5 0 1 159.95 92.69
  L 161.04 96.25
  Z"
/>
<path fill="#f9b998" d="
  M 102.75 11.79
  C 103.31 13.85 94.85 21.65 93.30 23.70
  Q 83.84 36.13 77.92 50.66
  C 64.49 52.43 59.05 68.78 71.38 76.40
  Q 68.78 87.20 69.81 98.27
  Q 59.76 109.57 72.50 117.54
  Q 73.41 121.14 74.12 124.78
  C 76.91 138.98 85.82 156.11 96.25 166.20
  Q 104.76 174.43 113.08 182.94
  C 82.75 180.09 55.91 159.85 43.53 132.27
  C 21.17 82.50 49.53 24.64 102.75 11.79
  Z"
/>
<path fill="#ecebfd" d="
  M 17.50 70.33
  C 8.14 46.12 32.00 23.43 55.55 28.55
  Q 56.42 28.74 55.79 29.37
  Q 39.58 45.67 32.52 67.42
  A 0.69 0.67 8.7 0 1 31.87 67.88
  Q 24.64 67.76 18.14 70.59
  A 0.48 0.48 -22.5 0 1 17.50 70.33
  Z"
/>
<path fill="#ecebfd" d="
  M 190.44 28.62
  C 215.81 22.97 235.81 45.56 228.90 70.27
  A 0.46 0.45 19.2 0 1 228.29 70.56
  Q 221.48 67.88 214.28 67.75
  A 0.71 0.70 81.0 0 1 213.63 67.27
  Q 206.46 45.42 190.26 29.24
  Q 189.78 28.77 190.44 28.62
  Z"
/>
<path fill="#000000" d="
  M 77.92 50.66
  C 84.25 50.68 92.95 50.04 97.94 52.81
  C 106.91 57.80 107.01 70.70 98.44 75.99
  C 92.79 79.48 77.32 78.99 71.38 76.40
  C 59.05 68.78 64.49 52.43 77.92 50.66
  Z
  M 96.8995 64.2486
  A 5.43 5.43 0.0 0 0 91.4601 58.8281
  L 77.8201 58.8519
  A 5.43 5.43 0.0 0 0 72.3996 64.2914
  L 72.4005 64.7914
  A 5.43 5.43 0.0 0 0 77.8399 70.2119
  L 91.4799 70.1881
  A 5.43 5.43 0.0 0 0 96.9004 64.7486
  L 96.8995 64.2486
  Z"
/>
<path fill="#000000" d="
  M 181.50 65.35
  A 12.52 12.52 0.0 0 1 168.98 77.87
  L 154.16 77.87
  A 12.52 12.52 0.0 0 1 141.64 65.35
  L 141.64 63.69
  A 12.52 12.52 0.0 0 1 154.16 51.17
  L 168.98 51.17
  A 12.52 12.52 0.0 0 1 181.50 63.69
  L 181.50 65.35
  Z
  M 173.68 64.26
  A 5.45 5.45 0.0 0 0 168.23 58.81
  L 154.75 58.81
  A 5.45 5.45 0.0 0 0 149.30 64.26
  L 149.30 64.78
  A 5.45 5.45 0.0 0 0 154.75 70.23
  L 168.23 70.23
  A 5.45 5.45 0.0 0 0 173.68 64.78
  L 173.68 64.26
  Z"
/>
<rect fill="#ecebfd" x="-12.25" y="-5.68" transform="translate(84.65,64.52) rotate(-0.1)" width="24.50" height="11.36" rx="5.43"/>
<rect fill="#ecebfd" x="149.30" y="58.81" width="24.38" height="11.42" rx="5.45"/>
<path fill="#f9b998" d="
  M 29.76 117.38
  C 2.83 115.30 2.99 77.73 29.69 75.80
  A 0.38 0.37 4.0 0 1 30.09 76.25
  Q 25.87 96.66 30.15 116.93
  A 0.37 0.37 86.0 0 1 29.76 117.38
  Z"
/>
<path fill="#f9b998" d="
  M 216.48 75.84
  C 242.50 76.87 243.93 114.18 216.48 117.40
  A 0.36 0.35 2.2 0 1 216.08 116.98
  Q 220.31 96.61 216.09 76.32
  A 0.40 0.39 85.2 0 1 216.48 75.84
  Z"
/>
<path fill="#000000" d="
  M 85.31 96.31
  Q 81.07 99.95 77.80 95.29
  Q 79.74 80.75 92.00 83.78
  C 97.05 85.02 99.60 88.58 100.27 93.52
  Q 100.72 96.76 97.58 97.68
  Q 92.66 99.13 92.28 93.55
  A 1.23 1.14 -73.5 0 0 91.88 92.74
  Q 86.18 87.89 85.31 96.31
  Z"
/>
<path fill="#000000" d="
  M 168.06 95.59
  Q 164.97 99.93 161.04 96.25
  L 159.95 92.69
  A 1.73 0.86 86.5 0 0 159.47 91.86
  Q 157.23 90.03 154.88 91.70
  A 1.72 1.17 89.5 0 0 154.36 92.48
  L 153.08 96.46
  A 1.10 1.03 -3.0 0 1 152.45 97.12
  C 140.96 101.72 146.19 78.67 160.97 83.82
  Q 168.28 86.37 168.06 95.59
  Z"
/>
<path fill="#ff9fac" d="
  M 77.80 95.29
  Q 81.07 99.95 85.31 96.31
  Q 90.41 96.83 93.48 100.96
  A 1.24 1.23 53.9 0 1 93.21 102.70
  Q 84.45 109.00 78.65 117.77
  A 2.23 2.20 -64.6 0 1 76.15 118.68
  L 72.50 117.54
  Q 59.76 109.57 69.81 98.27
  L 77.80 95.29
  Z"
/>
<path fill="#ff9fac" d="
  M 168.06 95.59
  Q 171.92 95.78 175.53 98.23
  C 186.13 105.42 179.36 118.26 168.56 118.84
  A 2.66 2.65 71.8 0 1 166.18 117.63
  Q 160.62 109.03 153.28 102.68
  A 1.45 1.45 -50.2 0 1 153.10 100.68
  Q 156.19 96.87 161.04 96.25
  Q 164.97 99.93 168.06 95.59
  Z"
/>
<path fill="#e48870" d="
  M 84.86 195.56
  L 69.11 189.52
  L 68.96 185.17
  A 1.05 0.91 73.1 0 1 69.33 184.33
  L 75.59 179.63
  A 0.95 0.77 36.7 0 1 76.48 179.59
  L 83.90 183.11
  A 2.34 2.18 14.6 0 1 85.24 185.22
  L 84.86 195.56
  Z"
/>
<path fill="#e48870" d="
  M 177.03 188.92
  Q 169.27 193.31 161.04 196.00
  L 161.07 184.35
  A 0.83 0.81 -13.7 0 1 161.53 183.62
  L 169.34 179.66
  A 1.03 0.98 -45.0 0 1 170.23 179.64
  Q 173.79 181.40 176.68 184.11
  A 1.24 1.09 -70.5 0 1 177.02 184.96
  L 177.03 188.92
  Z"
/>
<path fill="#d4d1fe" d="
  M 153.20 199.89
  Q 141.21 201.31 129.45 203.94
  Q 123.54 200.52 117.33 203.69
  Q 106.55 202.15 95.93 200.03
  Q 92.83 199.41 93.04 203.00
  L 93.03 187.35
  A 0.37 0.37 8.7 0 1 93.51 187.00
  Q 122.96 196.13 152.56 187.06
  A 0.39 0.38 -9.3 0 1 153.06 187.41
  L 153.20 199.89
  Z"
/>
<path fill="#eba983" d="
  M 177.03 188.92
  L 177.27 217.04
  A 0.52 0.49 -90.0 0 1 176.78 217.56
  L 161.58 217.67
  A 0.58 0.56 89.5 0 1 161.01 217.09
  L 161.04 196.00
  Q 169.27 193.31 177.03 188.92
  Z"
/>
<path fill="#eba983" d="
  M 84.86 195.56
  Q 85.42 206.01 84.93 217.19
  A 0.53 0.52 1.1 0 1 84.40 217.69
  L 69.54 217.72
  A 0.53 0.52 89.5 0 1 69.01 217.19
  L 69.11 189.52
  L 84.86 195.56
  Z"
/>
<path fill="#ecebfd" d="
  M 46.31 210.44
  Q 48.96 211.44 50.23 208.97
  Q 54.57 200.56 60.50 192.91
  Q 61.24 191.96 61.24 193.16
  L 61.23 219.74
  A 1.29 1.22 -24.5 0 1 60.88 220.60
  Q 51.69 230.34 60.82 240.30
  A 1.35 1.20 26.7 0 1 61.16 241.15
  L 61.21 260.21
  A 0.51 0.50 -0.0 0 1 60.70 260.71
  L 40.25 260.71
  A 0.50 0.49 90.0 0 1 39.76 260.21
  Q 39.67 241.09 45.04 222.83
  C 45.78 220.34 45.08 218.92 43.30 217.35
  A 0.77 0.60 36.1 0 1 43.07 216.55
  L 45.30 211.94
  A 1.21 0.94 -47.3 0 0 45.37 211.08
  Q 44.93 209.92 46.31 210.44
  Z"
/>
<path fill="#ecebfd" d="
  M 201.93 260.59
  Q 193.72 260.82 185.49 260.74
  A 0.54 0.54 0.0 0 1 184.95 260.20
  L 185.04 241.11
  A 1.39 1.31 -24.8 0 1 185.39 240.24
  Q 194.34 230.44 185.46 220.67
  A 1.33 1.19 26.6 0 1 185.11 219.79
  L 185.17 192.98
  Q 185.17 192.46 185.50 192.86
  C 200.57 211.21 206.56 236.61 206.43 260.21
  A 0.55 0.53 87.8 0 1 205.94 260.76
  C 204.57 260.86 203.14 260.56 201.93 260.59
  Z"
/>
<path fill="#ecebfd" d="
  M 153.20 199.89
  L 153.25 219.49
  A 1.30 1.25 -24.5 0 1 152.91 220.35
  Q 143.51 230.32 152.88 240.44
  A 1.34 1.24 25.3 0 1 153.23 241.31
  L 153.21 259.97
  A 0.53 0.52 88.9 0 1 152.71 260.50
  C 133.24 261.28 113.75 260.28 94.24 260.85
  A 1.28 1.27 89.4 0 1 92.93 259.56
  L 93.06 241.13
  A 1.39 1.31 -24.8 0 1 93.41 240.26
  Q 102.39 230.36 93.39 220.57
  A 1.37 1.19 26.7 0 1 93.03 219.70
  L 93.04 203.00
  Q 92.83 199.41 95.93 200.03
  Q 106.55 202.15 117.33 203.69
  Q 110.32 208.76 112.58 216.42
  C 115.17 225.22 127.81 227.01 132.47 218.93
  Q 137.15 210.80 129.45 203.94
  Q 141.21 201.31 153.20 199.89
  Z
  M 134.03 242.89
  A 10.95 10.95 0.0 0 0 123.08 231.94
  A 10.95 10.95 0.0 0 0 112.13 242.89
  A 10.95 10.95 0.0 0 0 123.08 253.84
  A 10.95 10.95 0.0 0 0 134.03 242.89
  Z"
/>
<path fill="#000000" d="
  M 129.45 203.94
  Q 137.15 210.80 132.47 218.93
  C 127.81 227.01 115.17 225.22 112.58 216.42
  Q 110.32 208.76 117.33 203.69
  Q 123.54 200.52 129.45 203.94
  Z
  M 126.17 213.19
  A 3.10 3.10 0.0 0 0 123.07 210.09
  A 3.10 3.10 0.0 0 0 119.97 213.19
  A 3.10 3.10 0.0 0 0 123.07 216.29
  A 3.10 3.10 0.0 0 0 126.17 213.19
  Z"
/>
<circle fill="#d4d1fe" cx="123.07" cy="213.19" r="3.10"/>
<rect fill="#fbc175" x="64.27" y="225.54" width="25.64" height="9.70" rx="4.65"/>
<rect fill="#fbc175" x="-12.82" y="-4.85" transform="translate(169.11,230.40) rotate(-0.1)" width="25.64" height="9.70" rx="4.65"/>
<path fill="#000000" d="
  M 134.03 242.89
  A 10.95 10.95 0.0 0 1 123.08 253.84
  A 10.95 10.95 0.0 0 1 112.13 242.89
  A 10.95 10.95 0.0 0 1 123.08 231.94
  A 10.95 10.95 0.0 0 1 134.03 242.89
  Z
  M 126.15 242.82
  A 3.07 3.07 0.0 0 0 123.08 239.75
  A 3.07 3.07 0.0 0 0 120.01 242.82
  A 3.07 3.07 0.0 0 0 123.08 245.89
  A 3.07 3.07 0.0 0 0 126.15 242.82
  Z"
/>
<circle fill="#d4d1fe" cx="123.08" cy="242.82" r="3.07"/>
<path fill="#e48870" d="
  M 85.04 254.50
  L 68.99 255.36
  L 69.11 243.86
  A 0.52 0.52 -89.4 0 1 69.63 243.35
  L 84.60 243.34
  A 0.53 0.51 0.5 0 1 85.13 243.86
  L 85.04 254.50
  Z"
/>
<path fill="#e48870" d="
  M 177.04 258.00
  L 176.76 255.31
  A 0.57 0.54 -3.3 0 0 176.18 254.82
  L 161.04 255.25
  L 161.11 243.86
  A 0.52 0.52 -89.4 0 1 161.63 243.35
  L 176.63 243.35
  A 0.51 0.50 0.6 0 1 177.14 243.86
  L 177.04 258.00
  Z"
/>
<path fill="#eba983" d="
  M 85.04 254.50
  L 85.29 259.82
  A 0.50 0.46 87.7 0 1 84.84 260.35
  L 69.69 260.64
  A 0.54 0.52 -2.2 0 1 69.13 260.14
  L 68.99 255.36
  L 85.04 254.50
  Z"
/>
<path fill="#eba983" d="
  M 177.04 258.00
  L 177.17 259.97
  A 0.48 0.47 88.3 0 1 176.70 260.48
  L 161.56 260.48
  A 0.53 0.50 0.0 0 1 161.03 259.98
  L 161.04 255.25
  L 176.18 254.82
  A 0.57 0.54 -3.3 0 1 176.76 255.31
  L 177.04 258.00
  Z"
/>
</svg>
